<svg xmlns="http://www.w3.org/2000/svg" width="32" height="34" viewBox="0 0 32 34">
    <path fill="#2C317F" d="M7.273 4.25v2.833H2.909V8.5h4.364v2.833H2.909V25.5h14.546v-5.667h2.909v11.334c0 1.558-1.31 2.833-2.91 2.833H2.91C1.31 34 0 32.725 0 31.167V7.083C0 5.525 1.31 4.25 2.91 4.25h4.363zm10.182 24.083H2.909v2.834h14.546v-2.834zM32 0v18.417H14.982l-6.255 4.108V0H32zm-2.91 2.833H11.637v14.309l2.473-1.559h14.982V2.833zm-13.416 4.07l.151 1.62 1.613-.357.303.908-1.512.65.844 1.4-.794.564-1.109-1.227-1.109 1.227-.793-.564.831-1.4-1.5-.65.303-.908 1.613.356.164-1.62h.995zm5.376 0l.15 1.62 1.614-.357.302.908-1.512.65.844 1.4-.794.564-1.108-1.227-1.11 1.227-.793-.564.832-1.4-1.5-.65.303-.908 1.612.356.164-1.62h.996zm5.375 0l.151 1.62 1.613-.357.302.908-1.511.65.844 1.4-.794.564-1.109-1.227-1.109 1.227-.793-.564.831-1.4-1.5-.65.303-.908 1.613.356.164-1.62h.995z"/>
</svg>
