<svg xmlns="http://www.w3.org/2000/svg" width="31" height="31" viewBox="0 0 31 31">
    <path fill="#2C317F" d="M17.492 0c1.603 0 2.915 1.268 2.915 2.818v7.046h-2.915V7.045H2.915v15.5h14.577V21.36h2.915v6.823c0 1.55-1.312 2.818-2.915 2.818H2.915C1.312 31 0 29.732 0 28.182V2.818C0 1.268 1.312 0 2.915 0zm0 25.364H2.915v2.818h14.577v-2.818zM28.083 10.63c1.187 0 2.134.55 2.74 1.16l-.985 1.147c-.467-.44-1.01-.757-1.717-.757-1.414 0-2.475 1.172-2.475 3.112 0 1.965.96 3.15 2.437 3.15.796 0 1.427-.367 1.932-.892L31 18.674c-.77.867-1.768 1.33-2.98 1.33-2.361 0-4.28-1.635-4.28-4.65 0-2.978 1.982-4.723 4.343-4.723zm-16.63.17l3.005 9.033H12.5l-.657-2.32h-3.03l-.657 2.32H6.263l2.992-9.032h2.198zm7.223 0c1.919 0 3.384.538 3.384 2.222 0 .83-.48 1.684-1.276 1.953v.061c1.01.232 1.755.915 1.755 2.136 0 1.819-1.565 2.66-3.623 2.66h-3.334v-9.031h3.094zm.075 5.017h-1.3v2.624h1.3c1.276 0 1.97-.44 1.97-1.379 0-.879-.682-1.245-1.97-1.245zm-8.41-3.65h-.05c-.24.99-.518 2.015-.796 2.954l-.277.99h2.222l-.278-.99c-.29-.94-.543-1.977-.82-2.953zm8.221.013h-1.111v2.295h1.086c1.187 0 1.704-.464 1.704-1.184 0-.794-.555-1.111-1.679-1.111zm-1.07-9.363H2.915v1.41h14.577v-1.41z"/>
</svg>
